HIERARCHY
ROOT Pelvis
{
	OFFSET 0.000000 0.000000 0.000000
	CHANNELS 6 Xposition Yposition Zposition Zrotation Yrotation Xrotation 
	JOINT Left_hip
	{
		OFFSET 0.068973 -0.091024 -0.007589
		CHANNELS 3 Zrotation Yrotation Xrotation
		JOINT Left_knee
		{
			OFFSET 0.036482 -0.391037 -0.003979
			CHANNELS 3 Zrotation Yrotation Xrotation
			JOINT Left_ankle
			{
				OFFSET -0.012239 -0.415469 -0.043440
				CHANNELS 3 Zrotation Yrotation Xrotation
				JOINT Left_foot
				{
					OFFSET 0.023806 -0.058558 0.118702
					CHANNELS 3 Zrotation Yrotation Xrotation
					End Site
					{
						OFFSET 0.000000 0.000000 0.000000
					}
				}
			}
		}
	}
	JOINT Right_hip
	{
		OFFSET -0.066552 -0.090468 -0.003847
		CHANNELS 3 Zrotation Yrotation Xrotation
		JOINT Right_knee
		{
			OFFSET -0.042435 -0.398340 -0.006400
			CHANNELS 3 Zrotation Yrotation Xrotation
			JOINT Right_ankle
			{
				OFFSET 0.014931 -0.415421 -0.041327
				CHANNELS 3 Zrotation Yrotation Xrotation
				JOINT Right_foot
				{
					OFFSET -0.021472 -0.049410 0.121889
					CHANNELS 3 Zrotation Yrotation Xrotation
					End Site
					{
						OFFSET 0.000000 0.000000 0.000000
					}
				}
			}
		}
	}
	JOINT Spine1
	{
		OFFSET -0.002904 0.105700 -0.022855
		CHANNELS 3 Zrotation Yrotation Xrotation
		JOINT Spine2
		{
			OFFSET 0.004179 0.132554 -0.002501
			CHANNELS 3 Zrotation Yrotation Xrotation
			JOINT Spine3
			{
				OFFSET 0.001987 0.049603 0.025988
				CHANNELS 3 Zrotation Yrotation Xrotation
				JOINT Neck
				{
					OFFSET -0.003935 0.211336 -0.045638
					CHANNELS 3 Zrotation Yrotation Xrotation
					JOINT Head
					{
						OFFSET 0.003906 0.065991 0.051018
						CHANNELS 3 Zrotation Yrotation Xrotation
						End Site
						{
							OFFSET 0.000000 0.000000 0.000000
						}
					}
				}
				JOINT Left_collar
				{
					OFFSET 0.072882 0.117751 -0.036270
					CHANNELS 3 Zrotation Yrotation Xrotation
					JOINT Left_shoulder
					{
						OFFSET 0.082118 0.032630 -0.005771
						CHANNELS 3 Zrotation Yrotation Xrotation
						JOINT Left_elbow
						{
							OFFSET 0.263305 -0.015144 -0.028095
							CHANNELS 3 Zrotation Yrotation Xrotation
							JOINT Left_wrist
							{
								OFFSET 0.250741 0.010115 -0.000759
								CHANNELS 3 Zrotation Yrotation Xrotation
								JOINT Left_palm
								{
									OFFSET 0.080683 -0.009989 -0.013613
									CHANNELS 3 Zrotation Yrotation Xrotation
									End Site
									{
										OFFSET 0.000000 0.000000 0.000000
									}
								}
							}
						}
					}
				}
				JOINT Right_collar
				{
					OFFSET -0.074811 0.116132 -0.040385
					CHANNELS 3 Zrotation Yrotation Xrotation
					JOINT Right_shoulder
					{
						OFFSET -0.085089 0.032943 -0.007484
						CHANNELS 3 Zrotation Yrotation Xrotation
						JOINT Right_elbow
						{
							OFFSET -0.254763 -0.014219 -0.020321
							CHANNELS 3 Zrotation Yrotation Xrotation
							JOINT Right_wrist
							{
								OFFSET -0.256597 0.009233 -0.005063
								CHANNELS 3 Zrotation Yrotation Xrotation
								JOINT Right_palm
								{
									OFFSET -0.080528 -0.007219 -0.010379
									CHANNELS 3 Zrotation Yrotation Xrotation
									End Site
									{
										OFFSET 0.000000 0.000000 0.000000
									}
								}
							}
						}
					}
				}
			}
		}
	}
}
MOTION
Frames: 12
Frame Time: 0.100000
0.097712 0.022522 -0.007505 172.217810 19.818634 -25.580019 -8.717749 4.087043 5.784032 -4.001700 5.660178 7.136894 -0.108464 15.483678 -1.138631 9.188231 6.603588 -12.409450 13.971039 -2.575944 21.273490 1.336457 3.608493 -6.414372 3.412702 -15.422814 -6.119851 -4.807696 3.751126 11.073781 4.527887 1.550543 -6.142793 3.426881 -6.139502 3.878142 1.343535 -0.271940 7.864283 1.383000 0.246331 22.782153 3.888848 2.895298 -18.319348 11.484206 11.662562 0.151820 -26.437193 6.212633 -2.131511 -176.432912 -59.462326 -152.287596 -26.009759 -16.454976 4.417086 -24.264311 -12.697688 -20.756976 -14.068481 -5.444311 -3.623164 18.192206 0.083270 -4.030089 175.389369 53.999345 -158.795687 27.214331 21.930822 -9.758429 21.736495 4.840227 -8.067080 
0.104350 0.018435 0.006779 174.018318 17.336665 -23.969093 -9.145096 3.323191 4.526899 -3.605796 7.078058 8.311206 0.618674 16.571150 -1.213234 8.436587 6.146274 -12.029805 13.568319 -2.187357 21.491728 0.762167 4.669582 -6.911814 4.856891 -14.616483 -5.300118 -6.485150 4.506553 10.129424 4.174593 2.517119 -6.649817 1.934085 -5.165185 3.737696 0.593365 0.804197 7.697369 0.143706 0.413917 22.207006 4.125490 3.376573 -18.571220 10.748941 11.987485 -0.541572 -27.943767 7.719182 -1.086858 -176.218388 -60.263102 -151.951720 -25.397973 -16.655702 4.511154 -23.514017 -12.391102 -20.797349 -14.695077 -4.876251 -2.962366 18.449578 0.457059 -4.262055 174.840503 53.507373 -159.510105 25.819110 22.535600 -9.383652 21.590360 4.732169 -8.398659 
0.108614 0.015315 0.018369 175.823091 16.059069 -22.902239 -10.153923 3.493071 5.054941 -3.522141 7.360847 7.233295 1.331136 17.473429 -1.022427 7.151689 5.530464 -11.577365 12.741493 -2.042146 21.842328 0.029217 5.847194 -6.986228 6.521530 -14.769782 -5.708244 -8.838513 5.120539 9.645340 4.907881 2.807214 -6.998650 -0.313206 -4.657178 3.589574 -0.477814 1.827913 8.448273 -2.983283 -0.160779 21.657438 3.595869 5.525523 -19.559456 9.667083 10.017117 -1.044394 -31.893326 10.453888 -0.388870 -175.069748 -63.791521 -152.040988 -23.652069 -14.284101 4.210303 -22.859723 -12.825039 -21.533319 -17.249123 -3.387921 -2.267856 17.807259 0.594095 -6.281996 174.852557 53.353683 -160.295687 22.465178 22.228314 -9.096432 22.521632 5.094121 -10.061376 
0.112580 0.015017 0.026686 176.585299 16.925235 -21.790604 -10.958629 3.120738 4.593238 -3.333037 7.450652 7.366810 0.776841 16.858436 -1.845849 7.065690 5.518277 -10.620493 12.359335 -1.699274 21.198714 0.103714 5.012102 -6.746594 6.055904 -14.602790 -6.338033 -8.593665 4.796479 10.459457 5.992482 2.686030 -6.318978 -2.309912 -4.484128 2.856192 -1.082902 2.222821 8.292732 -6.481785 0.117713 20.956663 2.046425 7.700439 -22.230553 6.121120 6.397504 -1.328162 -36.886323 13.650517 1.393612 175.823231 -70.705602 -147.450116 -27.221950 -20.678351 -2.663334 -23.298715 -11.753410 -19.775631 -18.907282 -1.413374 -2.512211 16.096606 -1.994652 -7.837358 177.835887 54.440015 -159.770144 23.082601 24.897765 -10.303176 23.366632 4.368583 -10.187087 
0.117204 0.014743 0.033217 177.268952 18.661028 -20.866831 -11.437668 2.921129 3.866638 -3.789389 6.124920 8.183494 0.678677 16.687127 -2.355662 6.517108 5.789075 -9.283615 11.892582 -2.184279 20.512498 0.007655 4.702302 -6.523896 6.238508 -14.255879 -6.905087 -9.605118 2.137049 9.871147 6.993745 2.522700 -5.612949 -4.028430 -4.090403 2.836332 -1.605161 2.659425 8.028063 -8.468498 -0.560329 19.981058 0.451849 9.124501 -25.006137 2.500920 2.674419 -2.093944 -42.186264 13.753594 3.319586 -168.910273 -84.826899 -153.072295 -17.774913 -15.887306 13.010348 -19.188714 -11.450146 -20.242068 -20.307837 -0.974312 -2.479588 15.675071 -3.432981 -10.802358 177.102195 58.289321 -157.654145 14.679805 24.376296 -2.274717 23.456017 4.874111 -11.370395 
0.121893 0.014315 0.040526 177.865153 19.453721 -19.619197 -11.938035 2.977577 4.114511 -3.796284 5.104484 6.550396 1.112327 16.413531 -2.813449 5.153407 6.558252 -7.642932 11.640716 -2.144665 19.947338 0.084780 4.672315 -6.906146 5.888918 -13.884131 -7.191778 -9.218919 -0.077799 10.707525 8.298664 2.213607 -5.216819 -5.096646 -4.141835 2.175293 -1.738533 3.085174 8.273477 -10.442631 -1.549869 19.374489 -0.724497 11.228468 -27.210056 -1.074654 -2.664074 -1.981998 -49.394268 14.969570 4.469095 7.233591 -77.848596 31.553220 -16.477178 -13.459181 15.328283 -17.137314 -10.795701 -19.410016 -21.737923 1.471811 -2.793769 14.888529 -4.103509 -13.193218 176.632395 63.343170 -157.557047 11.110090 22.988137 4.530567 24.295689 4.995843 -13.100915 
0.127665 0.013423 0.046313 178.623987 17.627240 -17.535846 -12.067555 3.215580 3.277260 -3.487431 5.614275 4.609028 1.692084 16.534173 -3.210931 4.083125 7.408241 -5.502405 11.525070 -1.398789 18.511800 0.220391 5.166834 -6.835472 5.614525 -12.518737 -8.157547 -8.482168 -2.465681 11.777214 9.845683 1.871669 -4.704672 -5.430418 -4.295924 1.077087 -1.409634 3.524751 8.126545 -11.747029 -1.881714 18.712386 -1.830977 13.651966 -29.114229 -4.741163 -7.308132 -1.341841 -56.377691 17.519655 4.744652 7.365509 -57.314077 30.320479 -17.405884 -10.801864 16.931788 -14.684482 -9.958060 -18.610910 -22.037090 4.792718 -3.311762 12.848514 -2.889550 -15.522427 174.703136 68.812835 -160.192665 9.194476 22.339300 12.874876 24.415212 4.332815 -14.946949 
0.133399 0.012593 0.051833 179.612687 13.366390 -15.765621 -11.576066 3.813002 1.296840 -3.456114 7.726622 4.612544 2.235529 17.069262 -3.804691 3.756464 8.471543 -3.660082 11.988401 0.463994 16.149509 -0.080441 6.020122 -4.293324 4.981964 -10.854263 -9.179696 -7.591165 -4.637385 12.392096 10.714811 1.445486 -2.696932 -5.151325 -4.557608 0.118328 -0.742199 3.672923 7.827919 -11.337505 -0.948237 18.139901 -2.905735 16.842747 -32.605547 -7.587912 -10.501329 -0.404842 -63.116136 21.532395 4.588804 6.006899 -40.297515 30.222584 -20.061142 -9.376010 14.151995 -12.739899 -8.596637 -16.666995 -22.132635 8.047250 -4.249408 9.901463 0.447192 -17.455751 172.117563 74.810324 -163.924087 8.369036 21.890773 18.473726 24.146538 2.569979 -15.672105 
0.137530 0.011811 0.056768 -179.841826 11.354576 -14.801178 -11.292246 4.193296 0.253896 -3.490430 8.663028 5.063330 2.112145 17.370795 -4.260086 4.298919 8.806739 -3.122813 12.167980 0.990899 15.111659 -0.342979 6.502405 -3.083635 4.810681 -10.068077 -9.436127 -7.560394 -5.696475 12.420236 10.880783 0.791044 -1.738288 -4.987705 -4.801293 1.125816 -0.495608 3.765994 7.306205 -9.551348 -0.474738 18.747500 -2.538959 19.564319 -34.059442 -9.831924 -10.986640 0.577408 -65.835656 24.076225 4.857637 3.069028 -35.025281 34.480190 -24.965134 -8.308434 15.234117 -12.670564 -8.896867 -17.230212 -22.200871 8.822697 -4.112986 7.453385 2.021165 -19.097203 171.278509 78.281958 -164.677084 10.370146 21.174781 23.058418 24.341821 2.393268 -16.493448 
0.140382 0.011673 0.060530 -179.944780 13.301035 -15.027309 -11.517632 4.096590 0.844219 -3.532629 7.206644 5.508961 1.516309 17.325743 -4.703469 5.140001 8.602810 -3.206849 11.899100 -0.049339 15.694116 -0.069664 6.285488 -3.401487 4.097172 -10.492989 -9.440274 -6.708504 -6.244999 12.459885 10.847232 -0.277627 -1.612831 -4.912194 -5.204159 2.668446 -0.404123 3.708488 7.419018 -8.124891 -0.100212 20.849354 -1.728103 22.235521 -32.469220 -11.712120 -11.343671 1.391616 -65.049657 23.137356 5.519331 1.760338 -35.882371 35.468994 -23.129411 -8.452641 16.265497 -13.851759 -9.707582 -17.721099 -22.146722 8.022208 -3.707515 6.133546 1.096772 -20.188412 172.634955 79.294068 -163.540154 9.526433 21.555167 24.744217 25.018551 3.222100 -16.474710 
0.142138 0.012130 0.064596 179.592070 17.573783 -15.550122 -12.146901 2.470673 1.242520 -3.224608 4.426231 6.817226 1.814482 17.116933 -5.086037 4.831310 9.567401 -3.003468 12.045105 -0.666197 16.461133 0.307107 4.836955 -4.528455 2.135426 -11.816969 -8.845552 -4.090567 -7.122673 13.033996 9.693504 0.510509 -1.922790 -4.222885 -5.675966 4.077602 -0.306418 3.130069 7.297189 -6.242245 -0.761585 23.978745 0.248004 22.437976 -28.325430 -12.797609 -13.206932 1.576896 -62.414006 18.219004 7.549451 3.787288 -38.013157 33.253458 -18.518059 -9.806272 14.339589 -14.777938 -9.088323 -15.026967 -21.059875 6.395588 -4.060285 7.637922 -1.810535 -19.314406 -178.744033 78.780764 -153.814167 7.480625 20.878821 23.320156 26.051786 3.956168 -15.035171 
0.144786 0.013946 0.071923 178.577822 24.398410 -16.031826 -12.391807 0.388839 1.122666 -3.517773 1.677514 9.535372 2.202244 15.619911 -6.236670 3.728488 10.844702 -3.089119 12.607770 -1.681623 16.467564 1.058608 2.027485 -4.947834 -0.173729 -13.643431 -9.256962 -1.465066 -7.731182 14.334998 7.968941 1.101405 -3.061703 -3.758789 -6.002247 4.538149 -0.305026 2.268433 6.722444 -5.149838 -1.230459 25.601666 1.980878 20.475867 -24.016720 -12.776187 -12.982710 0.957533 -59.749136 12.393876 8.655427 8.358493 -43.829034 26.389374 -16.995590 -9.615271 14.471395 -16.332059 -9.512818 -15.097401 -19.276261 3.560815 -3.935775 11.301338 -5.204416 -17.384702 -168.892192 76.621760 -142.395565 7.853585 19.271830 21.186282 27.357706 5.706613 -14.124351 
